<svg width="60" height="60" viewBox="0 0 60 60" fill="none" xmlns="http://www.w3.org/2000/svg">
<path d="M0 30C0 13.4315 13.4315 0 30 0V0C46.5685 0 60 13.4315 60 30V30C60 46.5685 46.5685 60 30 60V60C13.4315 60 0 46.5685 0 30V30Z" fill="#00285F"/>
<path d="M37.3627 18.9203C37.3348 18.0216 37.1127 17.1396 36.7115 16.335C36.3104 15.5304 35.7397 14.8222 35.0387 14.2593C32.2038 12.101 29.0938 12.0428 26.0027 13.4633C23.1384 14.7801 22.3026 17.4754 22.2823 20.541C22.262 23.6254 22.2781 26.7106 22.2781 29.7951H22.2676C22.2676 33.0399 22.1976 36.2868 22.29 39.5261C22.3642 42.103 23.0299 44.479 25.2481 46.0031C30.4434 49.5734 37.1247 46.4399 37.474 39.9629C37.8883 32.9524 37.8513 25.9225 37.3634 18.9168M31.9217 30.0101C31.9217 33.4194 31.8517 36.8308 31.9518 40.2373C31.9973 41.8069 31.1181 41.6536 30.2019 41.6144C29.3143 41.5765 28.2363 42.0008 28.2629 40.2625C28.3385 35.3621 28.2629 30.4616 28.3329 25.5611C28.3504 24.2947 28.104 23.638 26.7734 23.8376C26.1567 23.93 25.484 23.9076 25.5897 22.9135C25.6646 22.2134 25.2061 21.2753 26.4885 21.1437C27.0868 21.1103 27.6614 20.8983 28.1381 20.5352C28.6148 20.1721 28.9718 19.6745 29.1631 19.1065C29.6146 17.8464 30.6331 18.3966 31.3813 18.3973C32.2395 18.3973 31.9014 19.2787 31.9056 19.7835C31.935 23.1921 31.921 26.6014 31.921 30.0115" fill="white"/>
</svg>
