<svg width="440" height="220" viewBox="0 0 440 220" fill="none" xmlns="http://www.w3.org/2000/svg">
<path d="M426 0H14C6.26801 0 0 6.26801 0 14V206C0 213.732 6.26801 220 14 220H426C433.732 220 440 213.732 440 206V14C440 6.26801 433.732 0 426 0Z" fill="#00285F"/>
<mask id="mask0_355_13076" style="mask-type:luminance" maskUnits="userSpaceOnUse" x="0" y="0" width="440" height="220">
<path d="M426 0H14C6.26801 0 0 6.26801 0 14V206C0 213.732 6.26801 220 14 220H426C433.732 220 440 213.732 440 206V14C440 6.26801 433.732 0 426 0Z" fill="white"/>
</mask>
<g mask="url(#mask0_355_13076)">
<path opacity="0.2" d="M60 331C137.872 331 201 267.872 201 190C201 112.128 137.872 49 60 49C-17.8721 49 -81 112.128 -81 190C-81 267.872 -17.8721 331 60 331Z" fill="white"/>
<path opacity="0.2" d="M60.5 278C109.377 278 149 238.377 149 189.5C149 140.623 109.377 101 60.5 101C11.6228 101 -28 140.623 -28 189.5C-28 238.377 11.6228 278 60.5 278Z" fill="white"/>
</g>
<path d="M388.473 163.215H397.528V178.787H388.473V163.215Z" fill="#FF5F00"/>
<path d="M388.792 171.002C388.799 169.477 389.158 167.974 389.841 166.61C390.524 165.247 391.513 164.059 392.73 163.141C390.895 161.748 388.653 160.996 386.349 161.002C385.013 160.978 383.685 161.218 382.442 161.708C381.198 162.198 380.063 162.928 379.102 163.857C378.141 164.786 377.373 165.895 376.84 167.121C376.308 168.346 376.022 169.665 376 171.002C376.022 172.338 376.308 173.657 376.84 174.883C377.373 176.108 378.141 177.217 379.102 178.146C380.063 179.075 381.198 179.805 382.442 180.295C383.685 180.785 385.013 181.025 386.349 181.002C388.653 181.007 390.896 180.256 392.731 178.863C391.511 177.946 390.521 176.759 389.837 175.395C389.154 174.031 388.796 172.527 388.792 171.002Z" fill="#EB001B"/>
<path d="M410 171.001C409.977 172.338 409.692 173.656 409.159 174.882C408.627 176.108 407.859 177.217 406.898 178.146C405.937 179.074 404.802 179.805 403.559 180.295C402.315 180.785 400.988 181.025 399.652 181.001C397.347 181.007 395.105 180.256 393.27 178.862C394.491 177.948 395.483 176.762 396.167 175.397C396.85 174.033 397.207 172.528 397.208 171.001C397.2 169.476 396.841 167.974 396.158 166.61C395.475 165.247 394.487 164.059 393.27 163.14C395.105 161.747 397.347 160.996 399.652 161.001C402.349 160.959 404.953 161.988 406.892 163.863C408.832 165.737 409.95 168.304 410 171.001Z" fill="#F79E1B"/>
<path d="M42.768 97.048L44.368 99.928L40.208 101.432L44.368 102.936L42.704 105.912L39.248 103.064L39.984 107.48H36.656L37.36 103.064L33.936 105.976L32.176 102.904L36.336 101.4L32.208 99.96L33.84 97.016L37.392 99.832L36.656 95.384H40.016L39.248 99.832L42.768 97.048ZM59.3305 97.048L60.9305 99.928L56.7705 101.432L60.9305 102.936L59.2665 105.912L55.8105 103.064L56.5465 107.48H53.2185L53.9225 103.064L50.4985 105.976L48.7385 102.904L52.8985 101.4L48.7705 99.96L50.4025 97.016L53.9545 99.832L53.2185 95.384H56.5785L55.8105 99.832L59.3305 97.048ZM75.893 97.048L77.493 99.928L73.333 101.432L77.493 102.936L75.829 105.912L72.373 103.064L73.109 107.48H69.781L70.485 103.064L67.061 105.976L65.301 102.904L69.461 101.4L65.333 99.96L66.965 97.016L70.517 99.832L69.781 95.384H73.141L72.373 99.832L75.893 97.048ZM92.4555 97.048L94.0555 99.928L89.8955 101.432L94.0555 102.936L92.3915 105.912L88.9355 103.064L89.6715 107.48H86.3435L87.0475 103.064L83.6235 105.976L81.8635 102.904L86.0235 101.4L81.8955 99.96L83.5275 97.016L87.0795 99.832L86.3435 95.384H89.7035L88.9355 99.832L92.4555 97.048ZM131.893 97.048L133.493 99.928L129.333 101.432L133.493 102.936L131.829 105.912L128.373 103.064L129.109 107.48H125.781L126.485 103.064L123.061 105.976L121.301 102.904L125.461 101.4L121.333 99.96L122.965 97.016L126.517 99.832L125.781 95.384H129.141L128.373 99.832L131.893 97.048ZM148.456 97.048L150.056 99.928L145.896 101.432L150.056 102.936L148.392 105.912L144.936 103.064L145.672 107.48H142.344L143.048 103.064L139.624 105.976L137.864 102.904L142.024 101.4L137.896 99.96L139.528 97.016L143.08 99.832L142.344 95.384H145.704L144.936 99.832L148.456 97.048ZM165.018 97.048L166.618 99.928L162.458 101.432L166.618 102.936L164.954 105.912L161.498 103.064L162.234 107.48H158.906L159.61 103.064L156.186 105.976L154.426 102.904L158.586 101.4L154.458 99.96L156.09 97.016L159.642 99.832L158.906 95.384H162.266L161.498 99.832L165.018 97.048ZM181.581 97.048L183.181 99.928L179.021 101.432L183.181 102.936L181.517 105.912L178.061 103.064L178.797 107.48H175.469L176.173 103.064L172.749 105.976L170.989 102.904L175.149 101.4L171.021 99.96L172.653 97.016L176.205 99.832L175.469 95.384H178.829L178.061 99.832L181.581 97.048ZM213.85 106.648C211.717 105.539 210.65 103.821 210.65 101.496C210.65 100.344 210.938 99.2987 211.514 98.36C212.111 97.4 212.997 96.6427 214.17 96.088C215.365 95.512 216.815 95.224 218.522 95.224C220.229 95.224 221.669 95.512 222.842 96.088C224.037 96.6427 224.922 97.4 225.498 98.36C226.095 99.2987 226.394 100.344 226.394 101.496C226.394 102.669 226.106 103.704 225.53 104.6C224.954 105.475 224.186 106.157 223.226 106.648C224.399 107.16 225.317 107.907 225.978 108.888C226.639 109.869 226.97 111.032 226.97 112.376C226.97 113.827 226.597 115.096 225.85 116.184C225.125 117.251 224.122 118.072 222.842 118.648C221.562 119.224 220.122 119.512 218.522 119.512C216.922 119.512 215.482 119.224 214.202 118.648C212.943 118.072 211.941 117.251 211.194 116.184C210.469 115.096 210.106 113.827 210.106 112.376C210.106 111.032 210.437 109.869 211.098 108.888C211.759 107.885 212.677 107.139 213.85 106.648ZM222.042 102.136C222.042 101.091 221.722 100.28 221.082 99.704C220.463 99.128 219.61 98.84 218.522 98.84C217.455 98.84 216.602 99.128 215.962 99.704C215.343 100.28 215.034 101.101 215.034 102.168C215.034 103.128 215.354 103.896 215.994 104.472C216.655 105.048 217.498 105.336 218.522 105.336C219.546 105.336 220.389 105.048 221.05 104.472C221.711 103.875 222.042 103.096 222.042 102.136ZM218.522 108.6C217.306 108.6 216.314 108.909 215.546 109.528C214.799 110.147 214.426 111.032 214.426 112.184C214.426 113.251 214.789 114.125 215.514 114.808C216.261 115.469 217.263 115.8 218.522 115.8C219.781 115.8 220.773 115.459 221.498 114.776C222.223 114.093 222.586 113.229 222.586 112.184C222.586 111.053 222.213 110.179 221.466 109.56C220.719 108.92 219.738 108.6 218.522 108.6ZM230.573 101.816C230.679 99.6827 231.426 98.04 232.812 96.888C234.221 95.7147 236.066 95.128 238.349 95.128C239.906 95.128 241.239 95.4053 242.349 95.96C243.458 96.4933 244.29 97.2293 244.845 98.168C245.421 99.0853 245.708 100.131 245.708 101.304C245.708 102.648 245.357 103.789 244.653 104.728C243.97 105.645 243.149 106.264 242.189 106.584V106.712C243.426 107.096 244.386 107.779 245.069 108.76C245.773 109.741 246.125 111 246.125 112.536C246.125 113.816 245.826 114.957 245.229 115.96C244.653 116.963 243.789 117.752 242.637 118.328C241.506 118.883 240.141 119.16 238.541 119.16C236.13 119.16 234.167 118.552 232.653 117.336C231.138 116.12 230.338 114.328 230.253 111.96H234.605C234.647 113.005 234.999 113.848 235.661 114.488C236.343 115.107 237.271 115.416 238.445 115.416C239.533 115.416 240.365 115.117 240.941 114.52C241.538 113.901 241.837 113.112 241.837 112.152C241.837 110.872 241.431 109.955 240.621 109.4C239.81 108.845 238.551 108.568 236.845 108.568H235.917V104.888H236.845C239.874 104.888 241.389 103.875 241.389 101.848C241.389 100.931 241.111 100.216 240.557 99.704C240.023 99.192 239.245 98.936 238.22 98.936C237.218 98.936 236.439 99.2133 235.885 99.768C235.351 100.301 235.042 100.984 234.957 101.816H230.573ZM249.473 114.456V110.936L259.937 95.96H265.153V110.552H267.969V114.456H265.153V119H260.673V114.456H249.473ZM260.961 100.76L254.401 110.552H260.961V100.76ZM270.629 114.456V110.936L281.093 95.96H286.309V110.552H289.125V114.456H286.309V119H281.829V114.456H270.629ZM282.117 100.76L275.557 110.552H282.117V100.76ZM320.036 112.44C320.207 113.379 320.591 114.104 321.188 114.616C321.807 115.107 322.628 115.352 323.652 115.352C324.975 115.352 325.935 114.808 326.532 113.72C327.13 112.611 327.428 110.755 327.428 108.152C326.938 108.835 326.244 109.368 325.348 109.752C324.474 110.136 323.524 110.328 322.5 110.328C321.135 110.328 319.898 110.051 318.788 109.496C317.7 108.92 316.836 108.077 316.196 106.968C315.556 105.837 315.236 104.472 315.236 102.872C315.236 100.504 315.94 98.6267 317.348 97.24C318.756 95.832 320.676 95.128 323.108 95.128C326.138 95.128 328.271 96.0987 329.508 98.04C330.767 99.9813 331.396 102.904 331.396 106.808C331.396 109.581 331.151 111.853 330.66 113.624C330.191 115.395 329.37 116.739 328.196 117.656C327.044 118.573 325.466 119.032 323.46 119.032C321.882 119.032 320.538 118.733 319.428 118.136C318.319 117.517 317.466 116.717 316.868 115.736C316.292 114.733 315.962 113.635 315.876 112.44H320.036ZM323.428 106.68C324.538 106.68 325.412 106.339 326.052 105.656C326.692 104.973 327.012 104.056 327.012 102.904C327.012 101.645 326.671 100.675 325.988 99.992C325.327 99.288 324.42 98.936 323.268 98.936C322.116 98.936 321.199 99.2987 320.516 100.024C319.855 100.728 319.524 101.667 319.524 102.84C319.524 103.971 319.844 104.899 320.484 105.624C321.146 106.328 322.127 106.68 323.428 106.68ZM338.788 106.648C336.654 105.539 335.588 103.821 335.588 101.496C335.588 100.344 335.876 99.2987 336.452 98.36C337.049 97.4 337.934 96.6427 339.108 96.088C340.302 95.512 341.753 95.224 343.46 95.224C345.166 95.224 346.606 95.512 347.78 96.088C348.974 96.6427 349.86 97.4 350.436 98.36C351.033 99.2987 351.332 100.344 351.332 101.496C351.332 102.669 351.044 103.704 350.468 104.6C349.892 105.475 349.124 106.157 348.164 106.648C349.337 107.16 350.254 107.907 350.916 108.888C351.577 109.869 351.908 111.032 351.908 112.376C351.908 113.827 351.534 115.096 350.788 116.184C350.062 117.251 349.06 118.072 347.78 118.648C346.5 119.224 345.06 119.512 343.46 119.512C341.86 119.512 340.42 119.224 339.14 118.648C337.881 118.072 336.878 117.251 336.132 116.184C335.406 115.096 335.044 113.827 335.044 112.376C335.044 111.032 335.374 109.869 336.036 108.888C336.697 107.885 337.614 107.139 338.788 106.648ZM346.98 102.136C346.98 101.091 346.66 100.28 346.02 99.704C345.401 99.128 344.548 98.84 343.46 98.84C342.393 98.84 341.54 99.128 340.9 99.704C340.281 100.28 339.972 101.101 339.972 102.168C339.972 103.128 340.292 103.896 340.932 104.472C341.593 105.048 342.436 105.336 343.46 105.336C344.484 105.336 345.326 105.048 345.988 104.472C346.649 103.875 346.98 103.096 346.98 102.136ZM343.46 108.6C342.244 108.6 341.252 108.909 340.484 109.528C339.737 110.147 339.364 111.032 339.364 112.184C339.364 113.251 339.726 114.125 340.452 114.808C341.198 115.469 342.201 115.8 343.46 115.8C344.718 115.8 345.71 115.459 346.436 114.776C347.161 114.093 347.524 113.229 347.524 112.184C347.524 111.053 347.15 110.179 346.404 109.56C345.657 108.92 344.676 108.6 343.46 108.6ZM370.294 99.064L361.782 119H357.238L365.814 99.576H354.87V95.736H370.294V99.064ZM385.073 101.496C384.86 100.6 384.487 99.928 383.953 99.48C383.441 99.032 382.695 98.808 381.713 98.808C380.241 98.808 379.153 99.4053 378.449 100.6C377.767 101.773 377.415 103.693 377.393 106.36C377.905 105.507 378.652 104.845 379.633 104.376C380.615 103.885 381.681 103.64 382.833 103.64C384.22 103.64 385.447 103.939 386.513 104.536C387.58 105.133 388.412 106.008 389.009 107.16C389.607 108.291 389.905 109.656 389.905 111.256C389.905 112.771 389.596 114.125 388.977 115.32C388.38 116.493 387.495 117.411 386.321 118.072C385.148 118.733 383.751 119.064 382.129 119.064C379.911 119.064 378.161 118.573 376.881 117.592C375.623 116.611 374.737 115.245 374.225 113.496C373.735 111.725 373.489 109.549 373.489 106.968C373.489 103.064 374.161 100.12 375.505 98.136C376.849 96.1307 378.972 95.128 381.873 95.128C384.113 95.128 385.852 95.736 387.089 96.952C388.327 98.168 389.041 99.6827 389.233 101.496H385.073ZM381.809 107.32C380.679 107.32 379.729 107.651 378.961 108.312C378.193 108.973 377.809 109.933 377.809 111.192C377.809 112.451 378.161 113.443 378.865 114.168C379.591 114.893 380.604 115.256 381.905 115.256C383.057 115.256 383.964 114.904 384.625 114.2C385.308 113.496 385.649 112.547 385.649 111.352C385.649 110.115 385.319 109.133 384.657 108.408C384.017 107.683 383.068 107.32 381.809 107.32Z" fill="white"/>
<path d="M200.871 153.77V156.1H203.411V156.85H200.871V159.25H203.711V160H199.961V153.02H203.711V153.77H200.871ZM207.948 160L206.648 157.96L205.398 160H204.448L206.218 157.28L204.448 154.52H205.478L206.778 156.55L208.018 154.52H208.968L207.208 157.23L208.978 160H207.948ZM210.784 155.53C210.964 155.217 211.23 154.957 211.584 154.75C211.944 154.537 212.36 154.43 212.834 154.43C213.32 154.43 213.76 154.547 214.154 154.78C214.554 155.013 214.867 155.343 215.094 155.77C215.32 156.19 215.434 156.68 215.434 157.24C215.434 157.793 215.32 158.287 215.094 158.72C214.867 159.153 214.554 159.49 214.154 159.73C213.76 159.97 213.32 160.09 212.834 160.09C212.367 160.09 211.954 159.987 211.594 159.78C211.24 159.567 210.97 159.303 210.784 158.99V162.6H209.874V154.52H210.784V155.53ZM214.504 157.24C214.504 156.827 214.42 156.467 214.254 156.16C214.087 155.853 213.86 155.62 213.574 155.46C213.294 155.3 212.984 155.22 212.644 155.22C212.31 155.22 212 155.303 211.714 155.47C211.434 155.63 211.207 155.867 211.034 156.18C210.867 156.487 210.784 156.843 210.784 157.25C210.784 157.663 210.867 158.027 211.034 158.34C211.207 158.647 211.434 158.883 211.714 159.05C212 159.21 212.31 159.29 212.644 159.29C212.984 159.29 213.294 159.21 213.574 159.05C213.86 158.883 214.087 158.647 214.254 158.34C214.42 158.027 214.504 157.66 214.504 157.24ZM217.101 153.63C216.928 153.63 216.781 153.57 216.661 153.45C216.541 153.33 216.481 153.183 216.481 153.01C216.481 152.837 216.541 152.69 216.661 152.57C216.781 152.45 216.928 152.39 217.101 152.39C217.268 152.39 217.408 152.45 217.521 152.57C217.641 152.69 217.701 152.837 217.701 153.01C217.701 153.183 217.641 153.33 217.521 153.45C217.408 153.57 217.268 153.63 217.101 153.63ZM217.541 154.52V160H216.631V154.52H217.541ZM220.002 155.41C220.162 155.097 220.389 154.853 220.682 154.68C220.982 154.507 221.346 154.42 221.772 154.42V155.36H221.532C220.512 155.36 220.002 155.913 220.002 157.02V160H219.092V154.52H220.002V155.41ZM227.543 154.52L224.243 162.58H223.303L224.383 159.94L222.173 154.52H223.183L224.903 158.96L226.603 154.52H227.543ZM233.294 153.03C234.054 153.03 234.71 153.173 235.264 153.46C235.824 153.74 236.25 154.143 236.544 154.67C236.844 155.197 236.994 155.817 236.994 156.53C236.994 157.243 236.844 157.863 236.544 158.39C236.25 158.91 235.824 159.31 235.264 159.59C234.71 159.863 234.054 160 233.294 160H231.124V153.03H233.294ZM233.294 159.25C234.194 159.25 234.88 159.013 235.354 158.54C235.827 158.06 236.064 157.39 236.064 156.53C236.064 155.663 235.824 154.987 235.344 154.5C234.87 154.013 234.187 153.77 233.294 153.77H232.034V159.25H233.294ZM237.854 157.24C237.854 156.68 237.967 156.19 238.194 155.77C238.42 155.343 238.73 155.013 239.124 154.78C239.524 154.547 239.967 154.43 240.454 154.43C240.934 154.43 241.35 154.533 241.704 154.74C242.057 154.947 242.32 155.207 242.494 155.52V154.52H243.414V160H242.494V158.98C242.314 159.3 242.044 159.567 241.684 159.78C241.33 159.987 240.917 160.09 240.444 160.09C239.957 160.09 239.517 159.97 239.124 159.73C238.73 159.49 238.42 159.153 238.194 158.72C237.967 158.287 237.854 157.793 237.854 157.24ZM242.494 157.25C242.494 156.837 242.41 156.477 242.244 156.17C242.077 155.863 241.85 155.63 241.564 155.47C241.284 155.303 240.974 155.22 240.634 155.22C240.294 155.22 239.984 155.3 239.704 155.46C239.424 155.62 239.2 155.853 239.034 156.16C238.867 156.467 238.784 156.827 238.784 157.24C238.784 157.66 238.867 158.027 239.034 158.34C239.2 158.647 239.424 158.883 239.704 159.05C239.984 159.21 240.294 159.29 240.634 159.29C240.974 159.29 241.284 159.21 241.564 159.05C241.85 158.883 242.077 158.647 242.244 158.34C242.41 158.027 242.494 157.663 242.494 157.25ZM246.062 155.27V158.5C246.062 158.767 246.118 158.957 246.232 159.07C246.345 159.177 246.542 159.23 246.822 159.23H247.492V160H246.672C246.165 160 245.785 159.883 245.532 159.65C245.278 159.417 245.152 159.033 245.152 158.5V155.27H244.442V154.52H245.152V153.14H246.062V154.52H247.492V155.27H246.062ZM253.594 157.05C253.594 157.223 253.584 157.407 253.564 157.6H249.184C249.218 158.14 249.401 158.563 249.734 158.87C250.074 159.17 250.484 159.32 250.964 159.32C251.358 159.32 251.684 159.23 251.944 159.05C252.211 158.863 252.398 158.617 252.504 158.31H253.484C253.338 158.837 253.044 159.267 252.604 159.6C252.164 159.927 251.618 160.09 250.964 160.09C250.444 160.09 249.978 159.973 249.564 159.74C249.158 159.507 248.838 159.177 248.604 158.75C248.371 158.317 248.254 157.817 248.254 157.25C248.254 156.683 248.368 156.187 248.594 155.76C248.821 155.333 249.138 155.007 249.544 154.78C249.958 154.547 250.431 154.43 250.964 154.43C251.484 154.43 251.944 154.543 252.344 154.77C252.744 154.997 253.051 155.31 253.264 155.71C253.484 156.103 253.594 156.55 253.594 157.05ZM252.654 156.86C252.654 156.513 252.578 156.217 252.424 155.97C252.271 155.717 252.061 155.527 251.794 155.4C251.534 155.267 251.244 155.2 250.924 155.2C250.464 155.2 250.071 155.347 249.744 155.64C249.424 155.933 249.241 156.34 249.194 156.86H252.654Z" fill="white"/>
<path d="M200.151 182.016C200.151 180.171 200.461 178.731 201.079 177.696C201.709 176.651 202.786 176.128 204.311 176.128C205.837 176.128 206.909 176.651 207.527 177.696C208.157 178.731 208.471 180.171 208.471 182.016C208.471 183.883 208.157 185.344 207.527 186.4C206.909 187.445 205.837 187.968 204.311 187.968C202.786 187.968 201.709 187.445 201.079 186.4C200.461 185.344 200.151 183.883 200.151 182.016ZM206.679 182.016C206.679 181.152 206.621 180.421 206.503 179.824C206.397 179.227 206.173 178.741 205.831 178.368C205.49 177.984 204.983 177.792 204.311 177.792C203.639 177.792 203.133 177.984 202.791 178.368C202.45 178.741 202.221 179.227 202.103 179.824C201.997 180.421 201.943 181.152 201.943 182.016C201.943 182.912 201.997 183.664 202.103 184.272C202.21 184.88 202.434 185.371 202.775 185.744C203.127 186.117 203.639 186.304 204.311 186.304C204.983 186.304 205.49 186.117 205.831 185.744C206.183 185.371 206.413 184.88 206.519 184.272C206.626 183.664 206.679 182.912 206.679 182.016ZM211.409 185.52C212.433 184.635 213.239 183.909 213.825 183.344C214.423 182.768 214.919 182.171 215.313 181.552C215.708 180.933 215.905 180.315 215.905 179.696C215.905 179.056 215.751 178.555 215.441 178.192C215.143 177.829 214.668 177.648 214.017 177.648C213.388 177.648 212.897 177.851 212.545 178.256C212.204 178.651 212.023 179.184 212.001 179.856H210.241C210.273 178.64 210.636 177.712 211.329 177.072C212.033 176.421 212.924 176.096 214.001 176.096C215.164 176.096 216.071 176.416 216.721 177.056C217.383 177.696 217.713 178.549 217.713 179.616C217.713 180.384 217.516 181.125 217.121 181.84C216.737 182.544 216.273 183.179 215.729 183.744C215.196 184.299 214.513 184.944 213.681 185.68L212.961 186.32H218.033V187.84H210.257V186.512L211.409 185.52ZM229.952 172.896L225.6 190.8H223.808L228.144 172.896H229.952ZM237.175 185.52C238.199 184.635 239.004 183.909 239.591 183.344C240.188 182.768 240.684 182.171 241.079 181.552C241.474 180.933 241.671 180.315 241.671 179.696C241.671 179.056 241.516 178.555 241.207 178.192C240.908 177.829 240.434 177.648 239.783 177.648C239.154 177.648 238.663 177.851 238.311 178.256C237.97 178.651 237.788 179.184 237.767 179.856H236.007C236.039 178.64 236.402 177.712 237.095 177.072C237.799 176.421 238.69 176.096 239.767 176.096C240.93 176.096 241.836 176.416 242.487 177.056C243.148 177.696 243.479 178.549 243.479 179.616C243.479 180.384 243.282 181.125 242.887 181.84C242.503 182.544 242.039 183.179 241.495 183.744C240.962 184.299 240.279 184.944 239.447 185.68L238.727 186.32H243.799V187.84H236.023V186.512L237.175 185.52ZM245.401 182.016C245.401 180.171 245.711 178.731 246.329 177.696C246.959 176.651 248.036 176.128 249.561 176.128C251.087 176.128 252.159 176.651 252.777 177.696C253.407 178.731 253.721 180.171 253.721 182.016C253.721 183.883 253.407 185.344 252.777 186.4C252.159 187.445 251.087 187.968 249.561 187.968C248.036 187.968 246.959 187.445 246.329 186.4C245.711 185.344 245.401 183.883 245.401 182.016ZM251.929 182.016C251.929 181.152 251.871 180.421 251.753 179.824C251.647 179.227 251.423 178.741 251.081 178.368C250.74 177.984 250.233 177.792 249.561 177.792C248.889 177.792 248.383 177.984 248.041 178.368C247.7 178.741 247.471 179.227 247.353 179.824C247.247 180.421 247.193 181.152 247.193 182.016C247.193 182.912 247.247 183.664 247.353 184.272C247.46 184.88 247.684 185.371 248.025 185.744C248.377 186.117 248.889 186.304 249.561 186.304C250.233 186.304 250.74 186.117 251.081 185.744C251.433 185.371 251.663 184.88 251.769 184.272C251.876 183.664 251.929 182.912 251.929 182.016Z" fill="white"/>
<path d="M32.43 156.51C32.43 155.83 32.5833 155.22 32.89 154.68C33.1967 154.133 33.6133 153.707 34.14 153.4C34.6733 153.093 35.2633 152.94 35.91 152.94C36.67 152.94 37.3333 153.123 37.9 153.49C38.4667 153.857 38.88 154.377 39.14 155.05H38.05C37.8567 154.63 37.5767 154.307 37.21 154.08C36.85 153.853 36.4167 153.74 35.91 153.74C35.4233 153.74 34.9867 153.853 34.6 154.08C34.2133 154.307 33.91 154.63 33.69 155.05C33.47 155.463 33.36 155.95 33.36 156.51C33.36 157.063 33.47 157.55 33.69 157.97C33.91 158.383 34.2133 158.703 34.6 158.93C34.9867 159.157 35.4233 159.27 35.91 159.27C36.4167 159.27 36.85 159.16 37.21 158.94C37.5767 158.713 37.8567 158.39 38.05 157.97H39.14C38.88 158.637 38.4667 159.153 37.9 159.52C37.3333 159.88 36.67 160.06 35.91 160.06C35.2633 160.06 34.6733 159.91 34.14 159.61C33.6133 159.303 33.1967 158.88 32.89 158.34C32.5833 157.8 32.43 157.19 32.43 156.51ZM40.1546 157.24C40.1546 156.68 40.2679 156.19 40.4946 155.77C40.7213 155.343 41.0313 155.013 41.4246 154.78C41.8246 154.547 42.2679 154.43 42.7546 154.43C43.2346 154.43 43.6513 154.533 44.0046 154.74C44.3579 154.947 44.6213 155.207 44.7946 155.52V154.52H45.7146V160H44.7946V158.98C44.6146 159.3 44.3446 159.567 43.9846 159.78C43.6313 159.987 43.2179 160.09 42.7446 160.09C42.2579 160.09 41.8179 159.97 41.4246 159.73C41.0313 159.49 40.7213 159.153 40.4946 158.72C40.2679 158.287 40.1546 157.793 40.1546 157.24ZM44.7946 157.25C44.7946 156.837 44.7113 156.477 44.5446 156.17C44.3779 155.863 44.1513 155.63 43.8646 155.47C43.5846 155.303 43.2746 155.22 42.9346 155.22C42.5946 155.22 42.2846 155.3 42.0046 155.46C41.7246 155.62 41.5013 155.853 41.3346 156.16C41.1679 156.467 41.0846 156.827 41.0846 157.24C41.0846 157.66 41.1679 158.027 41.3346 158.34C41.5013 158.647 41.7246 158.883 42.0046 159.05C42.2846 159.21 42.5946 159.29 42.9346 159.29C43.2746 159.29 43.5846 159.21 43.8646 159.05C44.1513 158.883 44.3779 158.647 44.5446 158.34C44.7113 158.027 44.7946 157.663 44.7946 157.25ZM48.1624 155.41C48.3224 155.097 48.5491 154.853 48.8424 154.68C49.1424 154.507 49.5058 154.42 49.9324 154.42V155.36H49.6924C48.6724 155.36 48.1624 155.913 48.1624 157.02V160H47.2524V154.52H48.1624V155.41ZM50.6429 157.24C50.6429 156.68 50.7562 156.19 50.9829 155.77C51.2096 155.343 51.5196 155.013 51.9129 154.78C52.3129 154.547 52.7596 154.43 53.2529 154.43C53.6796 154.43 54.0762 154.53 54.4429 154.73C54.8096 154.923 55.0896 155.18 55.2829 155.5V152.6H56.2029V160H55.2829V158.97C55.1029 159.297 54.8362 159.567 54.4829 159.78C54.1296 159.987 53.7162 160.09 53.2429 160.09C52.7562 160.09 52.3129 159.97 51.9129 159.73C51.5196 159.49 51.2096 159.153 50.9829 158.72C50.7562 158.287 50.6429 157.793 50.6429 157.24ZM55.2829 157.25C55.2829 156.837 55.1996 156.477 55.0329 156.17C54.8662 155.863 54.6396 155.63 54.3529 155.47C54.0729 155.303 53.7629 155.22 53.4229 155.22C53.0829 155.22 52.7729 155.3 52.4929 155.46C52.2129 155.62 51.9896 155.853 51.8229 156.16C51.6562 156.467 51.5729 156.827 51.5729 157.24C51.5729 157.66 51.6562 158.027 51.8229 158.34C51.9896 158.647 52.2129 158.883 52.4929 159.05C52.7729 159.21 53.0829 159.29 53.4229 159.29C53.7629 159.29 54.0729 159.21 54.3529 159.05C54.6396 158.883 54.8662 158.647 55.0329 158.34C55.1996 158.027 55.2829 157.663 55.2829 157.25ZM65.7767 153.03V160H64.8667V156.84H61.3167V160H60.4067V153.03H61.3167V156.09H64.8667V153.03H65.7767ZM69.7205 160.09C69.2072 160.09 68.7405 159.973 68.3205 159.74C67.9072 159.507 67.5805 159.177 67.3405 158.75C67.1072 158.317 66.9905 157.817 66.9905 157.25C66.9905 156.69 67.1105 156.197 67.3505 155.77C67.5972 155.337 67.9305 155.007 68.3505 154.78C68.7705 154.547 69.2405 154.43 69.7605 154.43C70.2805 154.43 70.7505 154.547 71.1705 154.78C71.5905 155.007 71.9205 155.333 72.1605 155.76C72.4072 156.187 72.5305 156.683 72.5305 157.25C72.5305 157.817 72.4039 158.317 72.1505 158.75C71.9039 159.177 71.5672 159.507 71.1405 159.74C70.7139 159.973 70.2405 160.09 69.7205 160.09ZM69.7205 159.29C70.0472 159.29 70.3539 159.213 70.6405 159.06C70.9272 158.907 71.1572 158.677 71.3305 158.37C71.5105 158.063 71.6005 157.69 71.6005 157.25C71.6005 156.81 71.5139 156.437 71.3405 156.13C71.1672 155.823 70.9405 155.597 70.6605 155.45C70.3805 155.297 70.0772 155.22 69.7505 155.22C69.4172 155.22 69.1105 155.297 68.8305 155.45C68.5572 155.597 68.3372 155.823 68.1705 156.13C68.0039 156.437 67.9205 156.81 67.9205 157.25C67.9205 157.697 68.0005 158.073 68.1605 158.38C68.3272 158.687 68.5472 158.917 68.8205 159.07C69.0939 159.217 69.3939 159.29 69.7205 159.29ZM74.637 152.6V160H73.727V152.6H74.637ZM75.848 157.24C75.848 156.68 75.9613 156.19 76.188 155.77C76.4146 155.343 76.7246 155.013 77.118 154.78C77.518 154.547 77.9646 154.43 78.458 154.43C78.8846 154.43 79.2813 154.53 79.648 154.73C80.0146 154.923 80.2946 155.18 80.488 155.5V152.6H81.408V160H80.488V158.97C80.308 159.297 80.0413 159.567 79.688 159.78C79.3346 159.987 78.9213 160.09 78.448 160.09C77.9613 160.09 77.518 159.97 77.118 159.73C76.7246 159.49 76.4146 159.153 76.188 158.72C75.9613 158.287 75.848 157.793 75.848 157.24ZM80.488 157.25C80.488 156.837 80.4046 156.477 80.238 156.17C80.0713 155.863 79.8446 155.63 79.558 155.47C79.278 155.303 78.968 155.22 78.628 155.22C78.288 155.22 77.978 155.3 77.698 155.46C77.418 155.62 77.1946 155.853 77.028 156.16C76.8613 156.467 76.778 156.827 76.778 157.24C76.778 157.66 76.8613 158.027 77.028 158.34C77.1946 158.647 77.418 158.883 77.698 159.05C77.978 159.21 78.288 159.29 78.628 159.29C78.968 159.29 79.278 159.21 79.558 159.05C79.8446 158.883 80.0713 158.647 80.238 158.34C80.4046 158.027 80.488 157.663 80.488 157.25ZM87.9458 157.05C87.9458 157.223 87.9358 157.407 87.9158 157.6H83.5358C83.5691 158.14 83.7524 158.563 84.0858 158.87C84.4258 159.17 84.8358 159.32 85.3158 159.32C85.7091 159.32 86.0358 159.23 86.2958 159.05C86.5624 158.863 86.7491 158.617 86.8558 158.31H87.8358C87.6891 158.837 87.3958 159.267 86.9558 159.6C86.5158 159.927 85.9691 160.09 85.3158 160.09C84.7958 160.09 84.3291 159.973 83.9158 159.74C83.5091 159.507 83.1891 159.177 82.9558 158.75C82.7224 158.317 82.6058 157.817 82.6058 157.25C82.6058 156.683 82.7191 156.187 82.9458 155.76C83.1724 155.333 83.4891 155.007 83.8958 154.78C84.3091 154.547 84.7824 154.43 85.3158 154.43C85.8358 154.43 86.2958 154.543 86.6958 154.77C87.0958 154.997 87.4024 155.31 87.6158 155.71C87.8358 156.103 87.9458 156.55 87.9458 157.05ZM87.0058 156.86C87.0058 156.513 86.9291 156.217 86.7758 155.97C86.6224 155.717 86.4124 155.527 86.1458 155.4C85.8858 155.267 85.5958 155.2 85.2758 155.2C84.8158 155.2 84.4224 155.347 84.0958 155.64C83.7758 155.933 83.5924 156.34 83.5458 156.86H87.0058ZM90.057 155.41C90.217 155.097 90.4436 154.853 90.737 154.68C91.037 154.507 91.4003 154.42 91.827 154.42V155.36H91.587C90.567 155.36 90.057 155.913 90.057 157.02V160H89.147V154.52H90.057V155.41ZM101.023 160H100.113L96.4534 154.45V160H95.5434V153.02H96.4534L100.113 158.56V153.02H101.023V160ZM102.235 157.24C102.235 156.68 102.348 156.19 102.575 155.77C102.801 155.343 103.111 155.013 103.505 154.78C103.905 154.547 104.348 154.43 104.835 154.43C105.315 154.43 105.731 154.533 106.085 154.74C106.438 154.947 106.701 155.207 106.875 155.52V154.52H107.795V160H106.875V158.98C106.695 159.3 106.425 159.567 106.065 159.78C105.711 159.987 105.298 160.09 104.825 160.09C104.338 160.09 103.898 159.97 103.505 159.73C103.111 159.49 102.801 159.153 102.575 158.72C102.348 158.287 102.235 157.793 102.235 157.24ZM106.875 157.25C106.875 156.837 106.791 156.477 106.625 156.17C106.458 155.863 106.231 155.63 105.945 155.47C105.665 155.303 105.355 155.22 105.015 155.22C104.675 155.22 104.365 155.3 104.085 155.46C103.805 155.62 103.581 155.853 103.415 156.16C103.248 156.467 103.165 156.827 103.165 157.24C103.165 157.66 103.248 158.027 103.415 158.34C103.581 158.647 103.805 158.883 104.085 159.05C104.365 159.21 104.675 159.29 105.015 159.29C105.355 159.29 105.665 159.21 105.945 159.05C106.231 158.883 106.458 158.647 106.625 158.34C106.791 158.027 106.875 157.663 106.875 157.25ZM115.923 154.42C116.349 154.42 116.729 154.51 117.063 154.69C117.396 154.863 117.659 155.127 117.853 155.48C118.046 155.833 118.143 156.263 118.143 156.77V160H117.243V156.9C117.243 156.353 117.106 155.937 116.833 155.65C116.566 155.357 116.203 155.21 115.743 155.21C115.269 155.21 114.893 155.363 114.613 155.67C114.333 155.97 114.193 156.407 114.193 156.98V160H113.293V156.9C113.293 156.353 113.156 155.937 112.883 155.65C112.616 155.357 112.253 155.21 111.793 155.21C111.319 155.21 110.943 155.363 110.663 155.67C110.383 155.97 110.243 156.407 110.243 156.98V160H109.333V154.52H110.243V155.31C110.423 155.023 110.663 154.803 110.963 154.65C111.269 154.497 111.606 154.42 111.973 154.42C112.433 154.42 112.839 154.523 113.193 154.73C113.546 154.937 113.809 155.24 113.983 155.64C114.136 155.253 114.389 154.953 114.743 154.74C115.096 154.527 115.489 154.42 115.923 154.42ZM124.635 157.05C124.635 157.223 124.625 157.407 124.605 157.6H120.225C120.259 158.14 120.442 158.563 120.775 158.87C121.115 159.17 121.525 159.32 122.005 159.32C122.399 159.32 122.725 159.23 122.985 159.05C123.252 158.863 123.439 158.617 123.545 158.31H124.525C124.379 158.837 124.085 159.267 123.645 159.6C123.205 159.927 122.659 160.09 122.005 160.09C121.485 160.09 121.019 159.973 120.605 159.74C120.199 159.507 119.879 159.177 119.645 158.75C119.412 158.317 119.295 157.817 119.295 157.25C119.295 156.683 119.409 156.187 119.635 155.76C119.862 155.333 120.179 155.007 120.585 154.78C120.999 154.547 121.472 154.43 122.005 154.43C122.525 154.43 122.985 154.543 123.385 154.77C123.785 154.997 124.092 155.31 124.305 155.71C124.525 156.103 124.635 156.55 124.635 157.05ZM123.695 156.86C123.695 156.513 123.619 156.217 123.465 155.97C123.312 155.717 123.102 155.527 122.835 155.4C122.575 155.267 122.285 155.2 121.965 155.2C121.505 155.2 121.112 155.347 120.785 155.64C120.465 155.933 120.282 156.34 120.235 156.86H123.695Z" fill="white"/>
<path d="M36.864 188.112C36.1173 188.112 35.4453 187.984 34.848 187.728C34.2507 187.461 33.7813 187.088 33.44 186.608C33.0987 186.128 32.928 185.568 32.928 184.928H34.88C34.9227 185.408 35.1093 185.803 35.44 186.112C35.7813 186.421 36.256 186.576 36.864 186.576C37.4933 186.576 37.984 186.427 38.336 186.128C38.688 185.819 38.864 185.424 38.864 184.944C38.864 184.571 38.752 184.267 38.528 184.032C38.3147 183.797 38.0427 183.616 37.712 183.488C37.392 183.36 36.944 183.221 36.368 183.072C35.6427 182.88 35.0507 182.688 34.592 182.496C34.144 182.293 33.76 181.984 33.44 181.568C33.12 181.152 32.96 180.597 32.96 179.904C32.96 179.264 33.12 178.704 33.44 178.224C33.76 177.744 34.208 177.376 34.784 177.12C35.36 176.864 36.0267 176.736 36.784 176.736C37.8613 176.736 38.7413 177.008 39.424 177.552C40.1173 178.085 40.5013 178.821 40.576 179.76H38.56C38.528 179.355 38.336 179.008 37.984 178.72C37.632 178.432 37.168 178.288 36.592 178.288C36.0693 178.288 35.6427 178.421 35.312 178.688C34.9813 178.955 34.816 179.339 34.816 179.84C34.816 180.181 34.9173 180.464 35.12 180.688C35.3333 180.901 35.6 181.072 35.92 181.2C36.24 181.328 36.6773 181.467 37.232 181.616C37.968 181.819 38.5653 182.021 39.024 182.224C39.4933 182.427 39.888 182.741 40.208 183.168C40.5387 183.584 40.704 184.144 40.704 184.848C40.704 185.413 40.5493 185.947 40.24 186.448C39.9413 186.949 39.4987 187.355 38.912 187.664C38.336 187.963 37.6533 188.112 36.864 188.112ZM43.7843 178.016C43.4536 178.016 43.1763 177.904 42.9523 177.68C42.7283 177.456 42.6163 177.179 42.6163 176.848C42.6163 176.517 42.7283 176.24 42.9523 176.016C43.1763 175.792 43.4536 175.68 43.7843 175.68C44.1043 175.68 44.3763 175.792 44.6003 176.016C44.8243 176.24 44.9363 176.517 44.9363 176.848C44.9363 177.179 44.8243 177.456 44.6003 177.68C44.3763 177.904 44.1043 178.016 43.7843 178.016ZM44.6803 179.184V188H42.8563V179.184H44.6803ZM57.747 179.04C58.4403 179.04 59.059 179.184 59.603 179.472C60.1577 179.76 60.5897 180.187 60.899 180.752C61.219 181.317 61.379 182 61.379 182.8V188H59.571V183.072C59.571 182.283 59.3737 181.68 58.979 181.264C58.5843 180.837 58.0457 180.624 57.363 180.624C56.6803 180.624 56.1363 180.837 55.731 181.264C55.3363 181.68 55.139 182.283 55.139 183.072V188H53.331V183.072C53.331 182.283 53.1337 181.68 52.739 181.264C52.3443 180.837 51.8057 180.624 51.123 180.624C50.4403 180.624 49.8963 180.837 49.491 181.264C49.0963 181.68 48.899 182.283 48.899 183.072V188H47.075V179.184H48.899V180.192C49.1977 179.829 49.5763 179.547 50.035 179.344C50.4937 179.141 50.9843 179.04 51.507 179.04C52.211 179.04 52.8403 179.189 53.395 179.488C53.9497 179.787 54.3763 180.219 54.675 180.784C54.9417 180.251 55.3577 179.829 55.923 179.52C56.4883 179.2 57.0963 179.04 57.747 179.04ZM67.524 188.144C66.692 188.144 65.94 187.957 65.268 187.584C64.596 187.2 64.068 186.667 63.684 185.984C63.3 185.291 63.108 184.491 63.108 183.584C63.108 182.688 63.3053 181.893 63.7 181.2C64.0947 180.507 64.6333 179.973 65.316 179.6C65.9987 179.227 66.7613 179.04 67.604 179.04C68.4467 179.04 69.2093 179.227 69.892 179.6C70.5747 179.973 71.1133 180.507 71.508 181.2C71.9027 181.893 72.1 182.688 72.1 183.584C72.1 184.48 71.8973 185.275 71.492 185.968C71.0867 186.661 70.532 187.2 69.828 187.584C69.1347 187.957 68.3667 188.144 67.524 188.144ZM67.524 186.56C67.9933 186.56 68.4307 186.448 68.836 186.224C69.252 186 69.588 185.664 69.844 185.216C70.1 184.768 70.228 184.224 70.228 183.584C70.228 182.944 70.1053 182.405 69.86 181.968C69.6147 181.52 69.2893 181.184 68.884 180.96C68.4787 180.736 68.0413 180.624 67.572 180.624C67.1027 180.624 66.6653 180.736 66.26 180.96C65.8653 181.184 65.5507 181.52 65.316 181.968C65.0813 182.405 64.964 182.944 64.964 183.584C64.964 184.533 65.204 185.269 65.684 185.792C66.1747 186.304 66.788 186.56 67.524 186.56ZM78.3511 179.04C79.0445 179.04 79.6631 179.184 80.2071 179.472C80.7618 179.76 81.1938 180.187 81.5031 180.752C81.8125 181.317 81.9671 182 81.9671 182.8V188H80.1591V183.072C80.1591 182.283 79.9618 181.68 79.5671 181.264C79.1725 180.837 78.6338 180.624 77.9511 180.624C77.2685 180.624 76.7245 180.837 76.3191 181.264C75.9245 181.68 75.7271 182.283 75.7271 183.072V188H73.9031V179.184H75.7271V180.192C76.0258 179.829 76.4045 179.547 76.8631 179.344C77.3325 179.141 77.8285 179.04 78.3511 179.04ZM90.274 186.528H94.034V188H88.45V176.88H90.274V186.528ZM103.639 183.376C103.639 183.707 103.618 184.005 103.575 184.272H96.8394C96.8927 184.976 97.154 185.541 97.6234 185.968C98.0927 186.395 98.6687 186.608 99.3514 186.608C100.333 186.608 101.026 186.197 101.431 185.376H103.399C103.133 186.187 102.647 186.853 101.943 187.376C101.25 187.888 100.386 188.144 99.3514 188.144C98.5087 188.144 97.7514 187.957 97.0794 187.584C96.418 187.2 95.8954 186.667 95.5114 185.984C95.138 185.291 94.9514 184.491 94.9514 183.584C94.9514 182.677 95.1327 181.883 95.4954 181.2C95.8687 180.507 96.386 179.973 97.0474 179.6C97.7194 179.227 98.4874 179.04 99.3514 179.04C100.183 179.04 100.925 179.221 101.575 179.584C102.226 179.947 102.733 180.459 103.095 181.12C103.458 181.771 103.639 182.523 103.639 183.376ZM101.735 182.8C101.725 182.128 101.485 181.589 101.015 181.184C100.546 180.779 99.9647 180.576 99.2714 180.576C98.642 180.576 98.1034 180.779 97.6554 181.184C97.2074 181.579 96.9407 182.117 96.8554 182.8H101.735ZM117.274 179.184L114.538 188H112.618L110.842 181.488L109.066 188H107.146L104.394 179.184H106.25L108.09 186.272L109.962 179.184H111.866L113.658 186.24L115.482 179.184H117.274ZM119.566 178.016C119.235 178.016 118.958 177.904 118.734 177.68C118.51 177.456 118.398 177.179 118.398 176.848C118.398 176.517 118.51 176.24 118.734 176.016C118.958 175.792 119.235 175.68 119.566 175.68C119.886 175.68 120.158 175.792 120.382 176.016C120.606 176.24 120.718 176.517 120.718 176.848C120.718 177.179 120.606 177.456 120.382 177.68C120.158 177.904 119.886 178.016 119.566 178.016ZM120.462 179.184V188H118.638V179.184H120.462ZM126.056 188.144C125.363 188.144 124.739 188.021 124.184 187.776C123.64 187.52 123.208 187.179 122.888 186.752C122.568 186.315 122.398 185.829 122.376 185.296H124.264C124.296 185.669 124.472 185.984 124.792 186.24C125.123 186.485 125.534 186.608 126.024 186.608C126.536 186.608 126.931 186.512 127.208 186.32C127.496 186.117 127.64 185.861 127.64 185.552C127.64 185.221 127.48 184.976 127.16 184.816C126.851 184.656 126.355 184.48 125.672 184.288C125.011 184.107 124.472 183.931 124.056 183.76C123.64 183.589 123.278 183.328 122.968 182.976C122.67 182.624 122.52 182.16 122.52 181.584C122.52 181.115 122.659 180.688 122.936 180.304C123.214 179.909 123.608 179.6 124.12 179.376C124.643 179.152 125.24 179.04 125.912 179.04C126.915 179.04 127.72 179.296 128.328 179.808C128.947 180.309 129.278 180.997 129.32 181.872H127.496C127.464 181.477 127.304 181.163 127.016 180.928C126.728 180.693 126.339 180.576 125.848 180.576C125.368 180.576 125 180.667 124.744 180.848C124.488 181.029 124.36 181.269 124.36 181.568C124.36 181.803 124.446 182 124.616 182.16C124.787 182.32 124.995 182.448 125.24 182.544C125.486 182.629 125.848 182.741 126.328 182.88C126.968 183.051 127.491 183.227 127.896 183.408C128.312 183.579 128.67 183.835 128.968 184.176C129.267 184.517 129.422 184.971 129.432 185.536C129.432 186.037 129.294 186.485 129.016 186.88C128.739 187.275 128.344 187.584 127.832 187.808C127.331 188.032 126.739 188.144 126.056 188.144Z" fill="white"/>
<path d="M405 52.9282H380C378.674 52.9266 377.404 52.3993 376.466 51.462C375.529 50.5246 375.002 49.2538 375 47.9282V31.0132C375.002 29.6876 375.529 28.4167 376.466 27.4794C377.404 26.5421 378.674 26.0148 380 26.0132H405C406.326 26.0148 407.596 26.5421 408.534 27.4794C409.471 28.4167 409.998 29.6876 410 31.0132V47.9282C409.998 49.2538 409.471 50.5246 408.534 51.462C407.596 52.3993 406.326 52.9266 405 52.9282ZM392.542 28.6772C391.807 28.7426 391.098 28.9823 390.474 29.3764C389.851 29.7705 389.33 30.3076 388.955 30.9432C388.024 32.256 387.502 33.8146 387.455 35.4232C387.446 36.2323 387.619 37.0331 387.962 37.7663C388.304 38.4995 388.807 39.1464 389.433 39.6592C388.808 40.1769 388.306 40.8273 387.964 41.5631C387.622 42.2989 387.447 43.1017 387.454 43.9132C387.495 45.5005 388.007 47.0397 388.927 48.3342C389.3 48.9625 389.82 49.4913 390.441 49.8755C391.063 50.2598 391.768 50.4882 392.497 50.5412C393.227 50.4879 393.933 50.2595 394.556 49.8754C395.178 49.4912 395.699 48.9625 396.074 48.3342C396.997 47.0411 397.513 45.5015 397.554 43.9132C397.561 43.1005 397.385 42.2967 397.04 41.5609C396.695 40.825 396.19 40.1759 395.561 39.6612C396.192 39.1511 396.698 38.5048 397.044 37.7708C397.389 37.0368 397.563 36.2342 397.554 35.4232C397.513 33.8206 397.008 32.2642 396.1 30.9432C395.737 30.3035 395.223 29.7625 394.603 29.3675C393.983 28.9724 393.275 28.7354 392.542 28.6772Z" fill="#512503"/>
<path d="M409.737 33.4588V31.4068C409.737 30.2181 409.344 29.0627 408.619 28.1204C407.895 27.1781 406.879 26.5015 405.73 26.1958V33.4588H409.737ZM405.73 52.7688C406.88 52.4682 407.897 51.7945 408.622 50.8534C409.348 49.9122 409.74 48.7569 409.737 47.5688V45.6378H405.73V52.7688ZM405.73 45.2108H409.737V39.9988H405.73V45.2108ZM405.73 33.8728V39.5858H409.737V33.8728H405.73Z" fill="url(#paint0_linear_355_13076)"/>
<path d="M375.004 45.6532V47.5871C375.004 48.702 375.352 49.7889 376 50.6966C376.647 51.6043 377.561 52.2875 378.615 52.6511V45.6511L375.004 45.6532ZM378.615 40.0131H375.004V45.2241H378.615V40.0131ZM378.615 33.8861H375.004V39.5991H378.615V33.8861ZM378.615 26.3271C377.558 26.6955 376.643 27.3839 375.996 28.2967C375.348 29.2095 375.002 30.3012 375.004 31.4201V33.4571H378.615V26.3271Z" fill="url(#paint1_linear_355_13076)"/>
<path d="M378.82 45.6528V52.7678C379.283 52.8925 379.76 52.957 380.239 52.9598H404.481C404.827 52.9573 405.172 52.9238 405.512 52.8598V45.6598L378.82 45.6528ZM378.82 39.6008H405.512V33.8868H378.82V39.6008ZM378.82 45.2248H405.512V40.0148H378.82V45.2248ZM405.512 33.4598V26.1238C405.171 26.076 404.826 26.0513 404.481 26.0498H380.239C379.76 26.0403 379.282 26.0999 378.82 26.2268V33.4598H405.512Z" fill="url(#paint2_linear_355_13076)"/>
<path d="M392.125 29.182V26H392.319V29.182H392.125Z" fill="#512503"/>
<path d="M392.707 29.182V26H392.907V29.182H392.707Z" fill="#512503"/>
<path d="M392.125 53.0001V50.2861H392.319V52.9961L392.125 53.0001Z" fill="#512503"/>
<path d="M392.707 53.0001V50.2861H392.907V52.9961L392.707 53.0001Z" fill="#512503"/>
<path d="M387.285 43.9011C387.282 43.1237 387.445 42.3545 387.764 41.6455C388.083 40.9364 388.55 40.3041 389.134 39.7911C388.55 39.2814 388.083 38.652 387.764 37.9455C387.445 37.2391 387.282 36.4723 387.285 35.6971C387.285 32.7701 389.575 29.0451 392.485 29.0151C395.391 29.0451 397.578 32.7701 397.593 35.6971C397.594 36.4734 397.428 37.2408 397.107 37.9474C396.785 38.6539 396.315 39.283 395.729 39.7921C396.316 40.3042 396.785 40.936 397.107 41.645C397.428 42.354 397.594 43.1237 397.593 43.9021C397.578 46.8291 395.347 50.4511 392.441 50.4661C389.531 50.4501 387.285 46.8281 387.285 43.9011ZM389.076 31.4691C388.169 32.6967 387.657 34.1714 387.608 35.6971C387.607 36.4573 387.776 37.208 388.104 37.8938C388.432 38.5796 388.91 39.1829 389.502 39.6591L389.575 39.7921L389.502 39.9251C388.908 40.4033 388.429 41.0091 388.102 41.6976C387.774 42.3861 387.605 43.1396 387.608 43.9021C387.658 45.4044 388.159 46.8568 389.046 48.0701C389.411 48.6545 389.908 49.1449 390.497 49.5019C391.086 49.8588 391.75 50.0723 392.437 50.1251C393.123 50.0688 393.786 49.8538 394.375 49.4972C394.963 49.1406 395.461 48.652 395.828 48.0701C396.713 46.8557 397.21 45.4027 397.255 43.9011C397.258 43.1382 397.088 42.3846 396.759 41.6963C396.43 41.008 395.95 40.4026 395.355 39.9251L395.296 39.7921L395.355 39.6591C395.949 39.1835 396.428 38.5804 396.757 37.8946C397.086 37.2088 397.256 36.4578 397.255 35.6971C397.215 34.1794 396.724 32.7078 395.846 31.4691C395.497 30.8705 395.009 30.3646 394.424 29.994C393.838 29.6235 393.172 29.3992 392.481 29.3401H392.466C391.774 29.4058 391.107 29.6325 390.518 30.0022C389.929 30.3719 389.436 30.8743 389.076 31.4691Z" fill="#512503"/>
<path d="M392.496 29.2788C389.839 29.2788 387.637 32.9018 387.637 35.7398C387.633 36.5111 387.801 37.2734 388.129 37.9716C388.457 38.6699 388.935 39.2865 389.531 39.7768C388.935 40.2701 388.457 40.8892 388.129 41.5897C387.802 42.2902 387.633 43.0546 387.637 43.8278C387.637 46.6518 389.795 50.1558 392.437 50.1558C395.079 50.1558 397.251 46.6558 397.251 43.8278C397.254 43.0561 397.087 42.2933 396.762 41.5933C396.437 40.8932 395.963 40.2731 395.372 39.7768C395.962 39.2834 396.437 38.6658 396.762 37.968C397.087 37.2703 397.254 36.5095 397.251 35.7398C397.251 32.9018 395.152 29.2788 392.496 29.2788Z" fill="url(#paint3_linear_355_13076)"/>
<path d="M38.5945 47.2539C39.3974 41.4289 40.2004 35.6029 41.0034 29.776C41.0265 29.611 41.0331 29.4427 41.0584 29.2771C41.4747 26.5269 41.8619 26.2518 44.5233 26.6176C45.2861 26.7221 45.1448 27.1677 45.0689 27.6825C44.553 31.1919 44.0525 34.7039 43.5372 38.2133C42.8579 42.837 42.1391 47.4541 41.5105 52.0867C41.3856 53.0058 41.0908 53.2803 40.2455 53.2346C38.9393 53.1569 37.6296 53.1589 36.3236 53.2407C35.492 53.2957 35.2165 52.9508 35.1043 52.1598C34.4696 47.6973 33.8096 43.2386 33.1573 38.7804C32.626 35.1467 32.1135 31.5098 31.5475 27.8822C31.4062 26.9774 31.5387 26.5819 32.5171 26.6138C36.3032 26.737 35.3859 25.9719 35.9738 29.9003C36.7889 35.3459 37.4719 40.8172 38.2166 46.2765C38.2606 46.6021 38.3508 46.9206 38.4196 47.2429L38.5928 47.2556" fill="white"/>
<path d="M46.9759 39.96C46.9759 35.9446 47.0056 31.9292 46.955 27.9138C46.9423 26.9133 47.2377 26.5965 48.1694 26.6119C51.021 26.6581 53.8738 26.6515 56.7255 26.6146C57.5763 26.6036 57.925 26.8566 57.8964 27.8247C57.8161 30.57 57.8502 30.5711 55.2564 30.5711C54.1471 30.5711 53.0373 30.5915 51.929 30.564C51.3147 30.5491 50.9858 30.6888 51.0056 31.46C51.0533 33.2987 51.0533 35.1386 51.0056 36.9798C50.9869 37.7499 51.3059 37.8819 51.9301 37.8637C53.1572 37.8274 54.3864 37.8725 55.615 37.8456C56.1997 37.8324 56.44 38.0106 56.4725 38.6883C56.6237 41.6992 56.6457 41.6981 53.7693 41.6981C51.0194 41.6981 51.0194 41.6981 51.0194 44.6453C51.0194 45.8164 51.0634 46.9902 51.0051 48.1579C50.9627 49.0105 51.1976 49.3472 52.0555 49.3131C53.6378 49.2482 55.2245 49.3197 56.8085 49.2856C57.6192 49.268 57.9085 49.5743 57.8986 50.4599C57.8601 53.2135 57.8909 53.214 55.301 53.214C52.9636 53.214 50.6261 53.159 48.2898 53.2388C47.2767 53.2729 46.9253 53.032 46.9462 51.8785C47.0193 47.9066 46.9742 43.9319 46.9742 39.9589" fill="white"/>
<path d="M86.189 31.2945C86.1671 30.5884 85.9926 29.8954 85.6774 29.2632C85.3622 28.631 84.9138 28.0746 84.363 27.6323C82.1356 25.9365 79.692 25.8908 77.2633 27.0069C75.0127 28.0415 74.3561 30.1592 74.3401 32.5679C74.3242 34.9914 74.3368 37.4155 74.3368 39.839H74.3286C74.3286 42.3885 74.2736 44.9397 74.3462 47.4848C74.4044 49.5095 74.9275 51.3764 76.6704 52.5738C80.7524 55.3791 86.002 52.9171 86.2764 47.828C86.602 42.3198 86.5729 36.7963 86.1895 31.2918M81.9139 40.0079C81.9139 42.6866 81.8589 45.3671 81.9376 48.0436C81.9733 49.2768 81.2826 49.1564 80.5626 49.1256C79.8652 49.0959 79.0183 49.4292 79.0392 48.0634C79.0986 44.213 79.0392 40.3627 79.0942 36.5123C79.1079 35.5173 78.9143 35.0013 77.8688 35.1581C77.3843 35.2307 76.8557 35.2131 76.9388 34.432C76.9976 33.882 76.6374 33.1449 77.645 33.0415C78.1151 33.0152 78.5665 32.8487 78.9411 32.5634C79.3157 32.2781 79.5962 31.8871 79.7464 31.4408C80.1012 30.4507 80.9014 30.8831 81.4893 30.8836C82.1636 30.8836 81.898 31.5761 81.9013 31.9727C81.9244 34.6509 81.9134 37.3297 81.9134 40.009" fill="white"/>
<path d="M72.4487 52.6701C71.9235 50.2339 72.2249 47.7548 72.1638 45.2945C72.1143 43.3071 71.6006 41.5838 69.712 40.3803C70.2787 40.0428 70.7676 39.5893 71.1467 39.0495C71.5258 38.5097 71.7866 37.8959 71.9119 37.2483C72.289 35.2311 72.3202 33.1644 72.0043 31.1367C71.583 28.4304 70.3544 27.2253 67.7925 26.8342C65.7428 26.5212 63.6776 26.7368 61.6267 26.6048C60.3975 26.5261 60.0867 26.9805 60.0939 28.2329C60.1439 35.5519 60.1186 42.8715 60.1186 50.1905C60.1186 53.196 60.1186 53.13 62.9439 53.2482C64.0747 53.2955 64.2517 52.8494 64.2308 51.8181C64.1758 49.1426 64.2308 46.4644 64.2006 43.7873C64.1912 42.9793 64.3381 42.586 65.2351 42.6042C67.2701 42.6449 68.0048 43.3049 68.084 45.5332C68.1495 47.3709 68.0796 49.2147 68.1632 51.0513C68.2617 53.2158 68.3051 53.2136 70.3082 53.2136C70.8626 53.2136 71.4175 53.2075 71.9719 53.2136C72.3316 53.2185 72.562 53.1938 72.4487 52.6674M68.0059 36.5338C67.902 38.2389 65.8945 39.388 64.4486 38.624C64.1093 38.4447 64.1736 38.1548 64.1687 37.8814C64.1583 36.7967 64.1643 35.712 64.1649 34.6273C64.1649 33.5822 64.1836 32.541 64.1588 31.4986C64.1423 30.8033 64.4112 30.5762 65.0718 30.5531C67.412 30.4711 67.9355 30.926 68.0417 33.4084C68.0838 34.4495 68.0722 35.4922 68.007 36.5321" fill="white"/>
<defs>
<linearGradient id="paint0_linear_355_13076" x1="399.588" y1="17.719" x2="408.583" y2="18.3199" gradientUnits="userSpaceOnUse">
<stop offset="0.165" stop-color="#E8D689"/>
<stop offset="0.419" stop-color="#F4EAA9"/>
<stop offset="0.621" stop-color="#FDF8BE"/>
<stop offset="1" stop-color="#CCA42C"/>
</linearGradient>
<linearGradient id="paint1_linear_355_13076" x1="370.537" y1="19.6935" x2="382.276" y2="20.318" gradientUnits="userSpaceOnUse">
<stop offset="0.165" stop-color="#E8D689"/>
<stop offset="0.419" stop-color="#F4EAA9"/>
<stop offset="0.621" stop-color="#FDF8BE"/>
<stop offset="1" stop-color="#CCA42C"/>
</linearGradient>
<linearGradient id="paint2_linear_355_13076" x1="385.28" y1="18.6214" x2="393.46" y2="42.9626" gradientUnits="userSpaceOnUse">
<stop offset="0.165" stop-color="#E8D689"/>
<stop offset="0.41" stop-color="#F4EAA9"/>
<stop offset="0.604" stop-color="#FDF8BE"/>
<stop offset="1" stop-color="#CCA42C"/>
</linearGradient>
<linearGradient id="paint3_linear_355_13076" x1="387.108" y1="23.308" x2="400.201" y2="31.8612" gradientUnits="userSpaceOnUse">
<stop offset="0.011" stop-color="#E8D689"/>
<stop offset="0.302" stop-color="#F4EAA9"/>
<stop offset="0.533" stop-color="#FDF8BE"/>
<stop offset="1" stop-color="#CCA42C"/>
</linearGradient>
</defs>
</svg>
